# xmcd
#
# Track frame offsets: 
#        150
#        16805
#        31875
#        45893
#        63395
#        78993
#        95188
#        112365
#        129828
#        148070
#        166845
#        184118
#
# Disc length: 2733 seconds
#
# Revision: 2
# Processed by: cddbd v1.5.2PL0 Copyright (c) Steve Scherf et al.
# Submitted via: ExactAudioCopy v1.1
#
DISCID=990aab0c
DTITLE=Paul Thorn - Are You With Me
DYEAR=2004
DGENRE=Pop Rock
TTITLE0=Lover's Vacation
TTITLE1=If I Can Get Over Her
TTITLE2=High
TTITLE3=Love On Me
TTITLE4=She Won't Cheat On Us
TTITLE5=That's A Lie
TTITLE6=I Don't Wanna Know
TTITLE7=Are You With Me?
TTITLE8=If You Can't Love Me 4-Ever
TTITLE9=Nothin' To Show For It
TTITLE10=Almost What You Need
TTITLE11=Love Will Find You
EXTD=
EXTT0=
EXTT1=
EXTT2=
EXTT3=
EXTT4=
EXTT5=
EXTT6=
EXTT7=
EXTT8=
EXTT9=
EXTT10=
EXTT11=
PLAYORDER=
